PathFileType	4	(X/Y/Z)	c:/Users/goper/Files/vsCode/490R/osim_files/C10/C10_Slow_01.trc
DataRate	CameraRate	NumFrames	NumMarkers	Units                	OrigDataRate	OrigDataStartFrame	OrigNumFrames
250.00	250.00	4	36	mm	250.0	2194	2925
                Frame#	Time	LPSIS			LASIS			LTH1			LTH2			LTH3			LTH4			LLFE			LMFE			LSH1			LSH2			LSH3			LSH4			LLMAL			LMMAL			LCAL			LMTP5			LTOE			LMTP1			RPSIS			RASIS			RTH1			RTH2			RTH3			RTH4			RLFE			RMFE			RSH1			RSH2			RSH3			RSH4			RLMAL			RMMAL			RCAL			RMTP1			RTOE			RMTP5		
		X1	Y1	Z1	X2	Y2	Z2	X3	Y3	Z3	X4	Y4	Z4	X5	Y5	Z5	X6	Y6	Z6	X7	Y7	Z7	X8	Y8	Z8	X9	Y9	Z9	X10	Y10	Z10	X11	Y11	Z11	X12	Y12	Z12	X13	Y13	Z13	X14	Y14	Z14	X15	Y15	Z15	X16	Y16	Z16	X17	Y17	Z17	X18	Y18	Z18	X19	Y19	Z19	X20	Y20	Z20	X21	Y21	Z21	X22	Y22	Z22	X23	Y23	Z23	X24	Y24	Z24	X25	Y25	Z25	X26	Y26	Z26	X27	Y27	Z27	X28	Y28	Z28	X29	Y29	Z29	X30	Y30	Z30	X31	Y31	Z31	X32	Y32	Z32	X33	Y33	Z33	X34	Y34	Z34	X35	Y35	Z35	X36	Y36	Z36

2194	8.77200	-1185.73389	1019.57635	229.75967	-1341.70178	1003.64435	372.86664	-1284.02686	772.54486	410.53720	-1289.51550	725.37427	402.64120	-1343.56604	775.54510	395.56296	-1338.33545	728.01416	387.33838	0.00000	0.00000	0.00000	-1278.49121	484.18207	318.31088	-1210.82166	403.01294	324.94327	-1205.82056	356.15930	324.33295	-1270.05957	393.27521	310.27814	-1255.96545	348.89117	310.02701	-1185.71545	87.72913	260.03607	0.00000	0.00000	0.00000	-1113.13745	42.73642	218.01050	-1288.55908	30.79328	274.36639	-1341.41760	49.29023	210.35814	-1299.24915	19.77459	168.64027	-1187.71973	1013.30701	149.77516	-1345.51709	994.87000	39.70100	-1355.39905	729.38940	-8.59539	-1388.82654	700.01147	-11.91767	-1406.91199	762.78680	-5.90892	-1429.23560	723.85651	-4.89564	-1502.56445	510.67706	53.82711	-1521.95471	506.42130	166.56007	-1427.67273	424.79761	46.64013	-1429.52173	381.24820	42.66330	-1491.71826	419.27765	46.17787	-1483.30518	377.20267	41.20127	-1435.76392	112.04068	76.57341	-1463.69946	120.23213	155.79697	-1385.10962	59.31557	123.62513	-1579.78992	54.09903	134.95139	-1606.64563	73.55564	95.12662	-1551.64978	55.93047	38.30871
2195	8.77600	-1189.92419	1019.53497	229.30299	-1345.59534	1003.21252	372.89798	-1286.69580	772.43414	410.36447	-1291.93359	725.24957	402.54123	-1346.22412	775.08459	395.62784	-1341.38708	727.57983	387.81104	0.00000	0.00000	0.00000	-1279.66321	484.03116	318.47528	-1212.00769	403.23917	325.26230	-1206.51843	356.29587	324.31329	-1270.97278	393.16681	310.35861	-1256.65186	348.84460	310.12607	-1185.80750	87.85141	260.01630	0.00000	0.00000	0.00000	-1113.18530	42.81735	217.97772	-1288.55676	30.80634	274.36340	-1341.41785	49.26001	210.37442	-1299.28906	19.75335	168.64604	-1191.92932	1013.21021	149.37848	-1350.00500	994.44220	39.74965	-1359.67310	728.79797	-8.39324	-1393.21069	699.60364	-11.82236	-1411.23474	762.20355	-5.88844	-1433.54468	723.29437	-4.80710	-1507.12122	510.38528	54.07764	-1527.35498	506.80396	166.70546	-1434.14258	423.11728	47.13628	-1437.12549	379.52377	43.20823	-1498.28149	419.05194	46.52600	-1490.63025	376.96350	41.34898	-1451.64966	109.83334	78.31026	-1478.24695	119.34639	156.36882	-1401.16687	56.41248	124.34457	-1596.13147	56.17863	135.53685	-1622.23511	76.12508	95.64689	-1568.58691	56.96669	38.59437
2196	8.78000	-1194.06030	1019.42761	228.84048	-1349.41479	1002.76196	372.88528	-1289.39111	772.30066	410.22061	-1294.33960	725.06903	402.44296	-1348.91589	774.64050	395.75153	-1343.22229	727.11267	387.59512	0.00000	0.00000	0.00000	-1280.79846	483.90210	318.64789	-1213.72632	403.47577	325.38715	-1207.54663	356.12296	324.95380	-1271.86890	393.03867	310.44431	-1257.31042	348.76083	310.25983	-1185.89624	87.96627	259.98224	0.00000	0.00000	0.00000	-1113.19983	42.90098	217.95100	-1288.54285	30.80031	274.39380	-1341.41431	49.22037	210.38940	-1299.29285	19.72644	168.65121	-1196.27576	1013.02936	148.98199	-1354.48877	993.97186	39.78111	-1363.87256	728.18323	-8.08758	-1397.52466	699.08954	-11.64689	-1415.44592	761.53094	-5.83878	-1437.77563	722.65668	-4.69339	-1511.65393	510.05942	54.30067	-1532.70886	507.20093	166.88445	-1440.71558	421.33032	47.63268	-1444.69934	377.86072	43.71555	-1504.79224	418.82199	46.84853	-1498.11877	376.49316	41.59044	-1465.52673	108.61015	78.55871	-1492.68250	118.66975	157.02715	-1417.13000	53.75216	125.07133	-1611.99475	58.37352	136.15729	-1637.52283	78.95403	96.19894	-1584.64929	57.97192	40.11787
2197	8.78400	-1198.30432	1019.28430	228.44003	-1353.37244	1002.26807	372.92148	-1292.02808	772.16748	410.13632	-1296.77502	724.91656	402.41589	-1351.58691	774.14142	395.83286	-1345.69214	726.62585	387.74115	0.00000	0.00000	0.00000	-1281.97131	483.70770	318.78607	-1213.60669	403.44208	324.48199	-1208.23499	356.10757	325.03326	-1272.79102	392.99136	310.52911	-1258.09399	348.72656	310.32010	-1185.99731	88.11476	259.96426	0.00000	0.00000	0.00000	-1113.23938	42.98103	217.94380	-1288.56885	30.77786	274.43881	-1341.45081	49.19465	210.40816	-1299.31921	19.72554	168.65321	-1200.62903	1012.85443	148.64697	-1359.05200	993.50452	39.83561	-1367.96704	727.48267	-7.77544	-1402.02319	697.88507	-11.00967	-1419.65149	760.31287	-6.42903	-1441.94263	721.89227	-4.61203	-1516.11841	509.70389	54.54399	-1537.85327	507.50928	167.06967	-1447.38916	419.55692	48.09647	-1452.37561	376.16742	44.21254	-1511.33301	418.62775	47.10416	-1505.72107	376.10898	41.99257	-1480.20496	107.26985	79.31841	-1506.93567	118.18700	157.68758	-1433.08130	51.25645	125.69061	-1627.82031	60.93310	136.92786	-1652.06067	82.59644	96.53504	-1600.45801	59.64124	40.90464
